<svg width="39" height="39" viewBox="0 0 39 39" fill="none" xmlns="http://www.w3.org/2000/svg">
<g clip-path="url(#clip0_237_1622)">
<path d="M32.9121 14.9364L32.8923 15.1506L33.0342 15.3123L36.7097 19.4999L33.0342 23.6876L32.8923 23.8493L32.9121 24.0634L33.4243 29.607L27.9855 30.8424L27.7761 30.8899L27.6664 31.0745L24.8193 35.865L19.6973 33.6655L19.4993 33.5805L19.3016 33.666L14.1802 35.8803L11.3336 31.0907L11.2239 30.9062L11.0145 30.8586L5.5756 29.6232L6.08789 24.0633L6.10762 23.8492L5.96578 23.6876L2.28975 19.4994L5.96637 15.2954L6.10762 15.1338L6.08788 14.9202L5.57581 9.37784L11.0132 8.15781L11.2235 8.11064L11.3336 7.9254L14.1807 3.13493L19.3027 5.33437L19.5 5.41909L19.6973 5.33437L24.8193 3.13493L27.6664 7.9254L27.7761 8.10996L27.9855 8.15752L33.4243 9.39293L32.9121 14.9364ZM21.125 28.1249H21.625V27.6249V24.3749V23.8749H21.125H17.875H17.375V24.3749V27.6249V28.1249H17.875H21.125ZM21.125 21.6249H21.625V21.1249V11.3749V10.8749H21.125H17.875H17.375V11.3749V21.1249V21.6249H17.875H21.125Z" stroke="white"/>
</g>
<rect x="0.5" y="0.5" width="38" height="38" stroke="black"/>
<defs>
<clipPath id="clip0_237_1622">
<rect width="39" height="39" fill="white"/>
</clipPath>
</defs>
</svg>
