<svg width="28" height="28" viewBox="0 0 28 28" fill="none" xmlns="http://www.w3.org/2000/svg">
<g clip-path="url(#clip0_237_1605)">
<mask id="mask0_237_1605" style="mask-type:luminance" maskUnits="userSpaceOnUse" x="0" y="0" width="28" height="28">
<path d="M28 0H0V28H28V0Z" fill="white"/>
</mask>
<g mask="url(#mask0_237_1605)">
<path fill-rule="evenodd" clip-rule="evenodd" d="M21.4774 20.0371L27.4983 27.1026L26.4541 28L20.4167 20.9347C18.339 22.512 16.0002 23.3005 13.4003 23.3005C11.823 23.3005 10.3137 22.9932 8.87236 22.3786C7.43106 21.764 6.19096 20.9373 5.15207 19.8985C4.11318 18.8597 3.28645 17.6197 2.6719 16.1783C2.05734 14.7369 1.75004 13.2276 1.75 11.6503C1.74996 10.073 2.05725 8.56371 2.6719 7.12236C3.28654 5.68103 4.11327 4.44092 5.15207 3.40207C6.19087 2.36322 7.43097 1.53649 8.87236 0.921897C10.3137 0.3073 11.8231 0 13.4003 0C14.9776 0 16.4869 0.3073 17.9282 0.921897C19.3697 1.53649 20.6097 2.36322 21.6485 3.40207C22.6873 4.44092 23.514 5.68103 24.1286 7.12236C24.7434 8.56371 25.0507 10.073 25.0505 11.6503C25.0505 13.2711 24.7352 14.8049 24.1043 16.2517C23.4733 17.6984 22.5978 18.9602 21.4774 20.0371ZM13.4005 21.9299C15.2606 21.9299 16.9793 21.4704 18.5566 20.5511C20.1339 19.6318 21.3822 18.3836 22.3013 16.8064C23.2206 15.2291 23.6801 13.5103 23.6803 11.6502C23.6803 9.79002 23.2206 8.0713 22.3013 6.49401C21.3822 4.91671 20.1339 3.66849 18.5566 2.7493C16.9794 1.83013 15.2606 1.37054 13.4005 1.37054C11.5403 1.37054 9.82152 1.83013 8.24427 2.7493C6.66703 3.66849 5.41879 4.91671 4.49957 6.49401C3.58034 8.0713 3.12076 9.79002 3.12079 11.6502C3.12085 13.5103 3.58043 15.2291 4.49957 16.8064C5.4187 18.3836 6.66694 19.6318 8.24427 20.5511C9.82161 21.4704 11.5403 21.9299 13.4005 21.9299Z" fill="#B2B2B2"/>
</g>
</g>
<defs>
<clipPath id="clip0_237_1605">
<rect width="28" height="28" fill="white"/>
</clipPath>
</defs>
</svg>
