<svg width="28" height="28" viewBox="0 0 28 28" fill="none" xmlns="http://www.w3.org/2000/svg">
<path d="M20.608 18.9829L26.2852 25.6367L24.3318 27.3002L18.6699 20.6617C16.8386 21.8825 14.819 22.4929 12.6112 22.4929C11.136 22.4929 9.72431 22.2055 8.37632 21.6308C7.02826 21.0559 5.86841 20.2827 4.89675 19.311C3.92509 18.3394 3.15187 17.1796 2.57708 15.8315C2.00229 14.4835 1.71488 13.0718 1.71484 11.5966C1.7148 10.1214 2.00221 8.70974 2.57708 7.36168C3.15194 6.01357 3.92517 4.85373 4.89675 3.8821C5.86834 2.91048 7.02819 2.13726 8.37632 1.56243C9.72438 0.987608 11.1361 0.700195 12.6112 0.700195C14.0864 0.700195 15.498 0.987608 16.8462 1.56243C18.1942 2.13726 19.3541 2.91048 20.3257 3.8821C21.2973 4.85373 22.0705 6.01357 22.6454 7.36168C23.2202 8.70974 23.5077 10.1214 23.5076 11.5966C23.5076 12.5326 23.3906 13.4482 23.1566 14.3435C22.9226 15.2388 22.5894 16.0731 22.157 16.8464C21.7246 17.6196 21.2084 18.3318 20.608 18.9829ZM12.6113 19.929C13.7406 19.929 14.819 19.7077 15.8466 19.2651C16.8742 18.8226 17.7593 18.2299 18.502 17.4872C19.2447 16.7445 19.8373 15.8595 20.2799 14.8319C20.7225 13.8043 20.9438 12.7258 20.9438 11.5965C20.9438 10.4672 20.7225 9.3888 20.2799 8.3612C19.8373 7.3336 19.2447 6.44845 18.502 5.70573C17.7593 4.96301 16.8742 4.37038 15.8466 3.92783C14.819 3.48529 13.7406 3.26402 12.6113 3.26402C11.482 3.26402 10.4035 3.48529 9.37599 3.92783C8.34839 4.37038 7.46324 4.96303 6.72049 5.70579C5.97778 6.44855 5.38515 7.33367 4.9426 8.3612C4.50005 9.38866 4.27878 10.4672 4.27878 11.5965C4.27878 12.7259 4.50005 13.8043 4.9426 14.8319C5.38515 15.8593 5.9778 16.7445 6.72056 17.4872C7.46331 18.23 8.34846 18.8226 9.37599 19.2651C10.4034 19.7076 11.4819 19.9289 12.6113 19.929Z" fill="white"/>
</svg>
